<svg xmlns="http://www.w3.org/2000/svg" xmlns:xlink="http://www.w3.org/1999/xlink" width="129.817" height="93.327" viewBox="0 0 129.817 93.327">
  <defs>
    <clipPath id="clip-path">
      <rect id="Rectangle_2" data-name="Rectangle 2" width="129.817" height="93.327" fill="none"/>
    </clipPath>
  </defs>
  <g id="Group_2" data-name="Group 2" transform="translate(-337.729 -169.484)">
    <g id="Group_1" data-name="Group 1" transform="translate(337.729 169.484)" clip-path="url(#clip-path)">
      <path id="Path_1" data-name="Path 1" d="M445.376,191.2c1.022,8.817,8.35,12.612,9.985,13.354a22.271,22.271,0,0,1,4.565-27.663c-.58-.044-1.166-.068-1.755-.068A22.115,22.115,0,0,0,436.113,199c0,.47.016.939.044,1.4,3.746-7.39,9.219-9.2,9.219-9.2" transform="translate(-359.373 -171.099)" fill="#c3007a"/>
      <path id="Path_2" data-name="Path 2" d="M455.059,193.55a22.17,22.17,0,0,1,7.479-16.641l-.106-.007a21.017,21.017,0,0,0-14.444,14.315h0c1.021,8.817,8.349,12.612,9.985,13.354a22.145,22.145,0,0,1-2.914-11.021" transform="translate(-361.986 -171.116)" fill="#91005e"/>
      <path id="Path_3" data-name="Path 3" d="M474.782,178.8c-8.77,1.026-12.546,8.393-13.285,10.036a21.976,21.976,0,0,1,27.514,4.59c.048-.58.074-1.17.074-1.763a22.118,22.118,0,0,0-22.062-22.175c-.464,0-.93.016-1.391.047,7.35,3.767,9.149,9.266,9.149,9.266" transform="translate(-364.958 -169.484)" fill="#13b6ea"/>
      <path id="Path_4" data-name="Path 4" d="M472.462,188.53a21.95,21.95,0,0,1,16.549,7.519c.006-.035.009-.07.013-.106a21.036,21.036,0,0,0-14.242-14.52h0c-8.77,1.027-12.546,8.393-13.285,10.037a21.873,21.873,0,0,1,10.965-2.93" transform="translate(-364.958 -172.111)" fill="#0079c1"/>
      <path id="Path_5" data-name="Path 5" d="M488.183,207.995c-1.02-8.818-8.347-12.613-9.98-13.356a22.27,22.27,0,0,1-4.568,27.663c.58.045,1.164.071,1.755.071A22.115,22.115,0,0,0,497.445,200.2c0-.472-.014-.938-.045-1.4-3.746,7.389-9.217,9.2-9.217,9.2" transform="translate(-367.628 -175.018)" fill="#80c342"/>
      <path id="Path_6" data-name="Path 6" d="M481.116,205.663a22.167,22.167,0,0,1-7.481,16.639l.1.008a21.015,21.015,0,0,0,14.444-14.315h0c-1.02-8.818-8.347-12.613-9.98-13.356a22.2,22.2,0,0,1,2.913,11.024" transform="translate(-367.628 -175.018)" fill="#5a9230"/>
      <path id="Path_7" data-name="Path 7" d="M457.713,221.466c8.77-1.025,12.545-8.391,13.287-10.036a21.98,21.98,0,0,1-27.519-4.587c-.048.58-.07,1.168-.07,1.763a22.118,22.118,0,0,0,22.06,22.173c.466,0,.931-.016,1.391-.045-7.352-3.766-9.149-9.267-9.149-9.267" transform="translate(-360.979 -177.703)" fill="#faa21b"/>
      <path id="Path_8" data-name="Path 8" d="M460.052,214.36a21.959,21.959,0,0,1-16.552-7.518c0,.034-.005.069-.006.105a21.015,21.015,0,0,0,14.239,14.518h0c8.77-1.025,12.545-8.39,13.287-10.035a21.882,21.882,0,0,1-10.967,2.93" transform="translate(-360.997 -177.703)" fill="#e36f1e"/>
      <path id="Path_9" data-name="Path 9" d="M337.729,260.415V237.631h12.162v3.782h-7.568v6.126h7.026v3.6h-6.936v9.277Z" transform="translate(-337.729 -184.476)" fill="#000f9f"/>
      <path id="Path_10" data-name="Path 10" d="M356.74,243.228v18.228h4.469V246.507s1.742-1.163,4.944-.416V242.52s-3.2-.706-9.413.707" transform="translate(-341.911 -185.513)" fill="#000f9f"/>
      <path id="Path_11" data-name="Path 11" d="M396.494,243.288v18.169h4.35V246.343s6.012-2.023,6.051,2.23v12.8h4.351V247.542s.277-4.834-5.221-5.122a30.083,30.083,0,0,0-9.531.868" transform="translate(-350.657 -185.513)" fill="#000f9f"/>
      <path id="Path_12" data-name="Path 12" d="M460.528,243.288v18.169h4.351V246.343s6.011-2.023,6.05,2.23v12.8h4.35V247.542s.278-4.834-5.221-5.122a30.079,30.079,0,0,0-9.53.868" transform="translate(-364.745 -185.513)" fill="#000f9f"/>
      <path id="Path_13" data-name="Path 13" d="M436.153,237.536V256.4s-.6,5.614,6.958,3.529v-2.982s-2.386.4-2.485-.746V237.52Z" transform="translate(-359.38 -184.452)" fill="#000f9f"/>
      <path id="Path_14" data-name="Path 14" d="M429.312,245.371v-3.43h-3.23v-4.424l-4.473,0v4.422h-2.783v3.43h2.783V256.4s-.6,5.615,6.958,3.529v-2.982s-2.386.4-2.484-.746V245.371Z" transform="translate(-355.57 -184.451)" fill="#000f9f"/>
      <rect id="Rectangle_1" data-name="Rectangle 1" width="4.549" height="19.112" transform="translate(86.638 56.832)" fill="#000f9f"/>
      <path id="Path_15" data-name="Path 15" d="M378.766,242.346c-4.58,0-8.043,2.062-8.043,9.556,0,7.011,3.463,9.555,8.043,9.555s7.96-2.258,7.96-9.555c0-7.573-3.38-9.556-7.96-9.556m0,15.676c-2.04,0-3.583-1.629-3.583-6.12,0-4.8,1.543-6.12,3.583-6.12s3.548,1.268,3.548,6.12c0,4.673-1.507,6.12-3.548,6.12" transform="translate(-344.988 -185.514)" fill="#000f9f"/>
      <path id="Path_16" data-name="Path 16" d="M499.824,253.513H488.771c.268,2.746,1.772,4.136,4.484,4.136a13.151,13.151,0,0,0,5.971-1.213l.059,3.405a12.578,12.578,0,0,1-6.264,1.615,8.045,8.045,0,0,1-6.226-2.6,9.978,9.978,0,0,1-2.343-6.919,10.963,10.963,0,0,1,1.975-6.774,7.506,7.506,0,0,1,11.413-.366,9.61,9.61,0,0,1,1.974,6.3c0,.366.01,1.123.01,2.416m-5.03-6.371a3.133,3.133,0,0,0-2.543-1.172c-2.041,0-3.381,1.794-3.48,4.1h6.9a4.993,4.993,0,0,0-.872-2.928" transform="translate(-370.008 -185.514)" fill="#000f9f"/>
      <path id="Path_17" data-name="Path 17" d="M345.337,282l-.969-2.479h-3.761l-.97,2.464-1.909.015,4.032-9.745h1.7L347.332,282Zm-2.835-7.309-1.268,3.292h2.551Z" transform="translate(-337.729 -192.094)" fill="#6d6e71"/>
      <path id="Path_18" data-name="Path 18" d="M354.39,282.853a3.942,3.942,0,0,1-2.778-1.026,3.533,3.533,0,0,1-1.1-2.693,3.541,3.541,0,0,1,3.718-3.718,5.956,5.956,0,0,1,2.351.5l-.513,1.382a4.756,4.756,0,0,0-1.737-.4,1.793,1.793,0,0,0-1.454.641,2.314,2.314,0,0,0-.541,1.553,2.394,2.394,0,0,0,.583,1.624,2.012,2.012,0,0,0,1.567.656,4.676,4.676,0,0,0,1.6-.357l.5,1.339a5.39,5.39,0,0,1-2.194.5" transform="translate(-340.542 -192.789)" fill="#6d6e71"/>
      <path id="Path_19" data-name="Path 19" d="M362.6,282.853a4.481,4.481,0,0,1-2.108-.456,1.832,1.832,0,0,1-1.083-1.71,1.907,1.907,0,0,1,1.14-1.809,10.83,10.83,0,0,1,2.136-.6c.756-.171,1.14-.413,1.14-.726,0-.441-.4-.656-1.2-.656a5.018,5.018,0,0,0-1.98.427l-.584-1.3a6.6,6.6,0,0,1,2.806-.612,3.07,3.07,0,0,1,1.909.541,2.155,2.155,0,0,1,.755,1.781V281.4a5.669,5.669,0,0,0,.1.9,10.757,10.757,0,0,1-3.035.555m1.225-1.895v-1.753a1.922,1.922,0,0,1-.912.371,6.907,6.907,0,0,0-1.1.3.738.738,0,0,0-.527.684c0,.584.441.869,1.325.869a4.19,4.19,0,0,0,1.239-.2c-.015-.128-.029-.214-.029-.271" transform="translate(-342.499 -192.789)" fill="#6d6e71"/>
      <path id="Path_20" data-name="Path 20" d="M372.706,281.956a3.837,3.837,0,0,1-2.792-1.068,3.739,3.739,0,0,1-1.1-2.764,3.8,3.8,0,0,1,.826-2.508,3,3,0,0,1,2.437-1.1,3.343,3.343,0,0,1,1.6.385v-3.562h1.71v9.133a8.642,8.642,0,0,0,.085.955,8.016,8.016,0,0,1-2.764.527m.969-1.895v-3.718a1.866,1.866,0,0,0-1.168-.342,1.577,1.577,0,0,0-1.382.656,2.672,2.672,0,0,0-.4,1.553,2.468,2.468,0,0,0,.484,1.609,1.819,1.819,0,0,0,1.511.656,2.941,2.941,0,0,0,.984-.128c-.015-.129-.029-.229-.029-.285" transform="translate(-344.568 -191.893)" fill="#6d6e71"/>
      <path id="Path_21" data-name="Path 21" d="M385.21,279.762h-4.6a1.675,1.675,0,0,0,1.909,1.61,4.474,4.474,0,0,0,1.81-.371l.541,1.324a6.123,6.123,0,0,1-2.451.527,3.585,3.585,0,0,1-2.65-1.012,3.677,3.677,0,0,1-1-2.692,4,4,0,0,1,.841-2.636,3.032,3.032,0,0,1,2.465-1.1,3.069,3.069,0,0,1,2.393.954,3.527,3.527,0,0,1,.841,2.451,7.842,7.842,0,0,1-.1.941m-2.037-2.48a1.389,1.389,0,0,0-1.083-.456,1.526,1.526,0,0,0-1.481,1.6h2.934a1.817,1.817,0,0,0-.37-1.14" transform="translate(-346.758 -192.789)" fill="#6d6e71"/>
      <path id="Path_22" data-name="Path 22" d="M397.068,282.7v-4.474c0-.869-.413-1.311-1.239-1.311a2.835,2.835,0,0,0-1.282.356,4.18,4.18,0,0,1,.057.841V282.7h-1.71v-4.487c0-.87-.413-1.3-1.225-1.3a3,3,0,0,0-1.267.3c.014.142.028.242.028.313V282.7h-1.71v-5.642a8.175,8.175,0,0,0-.085-.926,9.319,9.319,0,0,1,3.206-.713,2.871,2.871,0,0,1,2.122.655,4.806,4.806,0,0,1,2.38-.655,2.242,2.242,0,0,1,2.436,2.465V282.7Z" transform="translate(-348.928 -192.789)" fill="#6d6e71"/>
      <path id="Path_23" data-name="Path 23" d="M407.315,283.168c-.612,1.724-1.538,2.721-2.764,2.992l-.9-1.239a3.273,3.273,0,0,0,2.251-2.1c-.328-.07-.584-.356-.8-.854l-2.665-6.355h1.923l2.037,5.415,1.809-5.415h1.81Z" transform="translate(-351.966 -192.833)" fill="#6d6e71"/>
      <path id="Path_24" data-name="Path 24" d="M422.931,281.814a3.734,3.734,0,0,1-5.2-.029,4.106,4.106,0,0,1,.014-5.314,3.717,3.717,0,0,1,5.186,0,4.12,4.12,0,0,1,0,5.343m-1.282-4.189a1.438,1.438,0,0,0-1.31-.726,1.455,1.455,0,0,0-1.311.713,2.929,2.929,0,0,0-.37,1.539,2.845,2.845,0,0,0,.37,1.524,1.562,1.562,0,0,0,2.622,0,2.839,2.839,0,0,0,.371-1.524,2.911,2.911,0,0,0-.371-1.526" transform="translate(-355.116 -192.789)" fill="#6d6e71"/>
      <path id="Path_25" data-name="Path 25" d="M431.27,272.923a3.62,3.62,0,0,0-1.425-.385c-.47,0-.7.228-.7.67v1.425h1.923V276.1h-1.923v5.657h-1.711v-5.671l-.811-.029v-1.368l.811-.042v-1.567a1.758,1.758,0,0,1,.641-1.482,2.515,2.515,0,0,1,1.582-.456,6.918,6.918,0,0,1,2.051.442Z" transform="translate(-357.286 -191.848)" fill="#6d6e71"/>
      <path id="Path_26" data-name="Path 26" d="M437.676,282v-9.745h1.782v8.207h4.032V282Z" transform="translate(-359.717 -192.094)" fill="#6d6e71"/>
      <path id="Path_27" data-name="Path 27" d="M451.826,281.814a3.734,3.734,0,0,1-5.2-.029,4.106,4.106,0,0,1,.014-5.314,3.718,3.718,0,0,1,5.186,0,4.12,4.12,0,0,1,0,5.343m-1.282-4.189a1.438,1.438,0,0,0-1.31-.726,1.455,1.455,0,0,0-1.311.713,2.921,2.921,0,0,0-.371,1.539,2.838,2.838,0,0,0,.371,1.524,1.562,1.562,0,0,0,2.622,0,2.838,2.838,0,0,0,.371-1.524,2.91,2.91,0,0,0-.371-1.526" transform="translate(-361.473 -192.789)" fill="#6d6e71"/>
      <path id="Path_28" data-name="Path 28" d="M461.377,285.618a5.23,5.23,0,0,1-2.323.47,5.531,5.531,0,0,1-2.236-.414,1.841,1.841,0,0,1-1.225-1.71c0-.926.541-1.538,1.624-1.866a1.4,1.4,0,0,1-.285-.784,1.2,1.2,0,0,1,.5-.926,2.611,2.611,0,0,1-.484-4.274,3.127,3.127,0,0,1,2.094-.7,3.063,3.063,0,0,1,.655.085c.271.043.428.072.485.072H462.6v1.31a2.374,2.374,0,0,1-.955-.128l-.029.028a2.682,2.682,0,0,1,.413,1.311,2.61,2.61,0,0,1-2.18,2.593c-.085.015-.4.057-.939.1-.214.014-.5.186-.5.371,0,.243.357.413,1.083.527a9.224,9.224,0,0,1,2.024.456,1.672,1.672,0,0,1,1.083,1.638,1.98,1.98,0,0,1-1.225,1.838m-1.653-2.494-1.581-.257c-.656.213-.984.57-.984,1.041,0,.327.243.569.74.726a4.077,4.077,0,0,0,1.169.157c1.2,0,1.8-.3,1.8-.912,0-.328-.385-.584-1.14-.755m-.684-6.255a1.264,1.264,0,1,0,1.354,1.253,1.217,1.217,0,0,0-1.354-1.253" transform="translate(-363.659 -192.789)" fill="#6d6e71"/>
      <path id="Path_29" data-name="Path 29" d="M466.829,273.205a.982.982,0,0,1-1.026-1,1,1,0,0,1,1.026-1.011,1.034,1.034,0,0,1,1.054,1.011,1,1,0,0,1-1.054,1M466,274.645h1.71v7.124H466Z" transform="translate(-365.905 -191.861)" fill="#6d6e71"/>
      <path id="Path_30" data-name="Path 30" d="M474.1,282.383a3.648,3.648,0,0,1-1.909.47,6.636,6.636,0,0,1-2.351-.47l.5-1.339a4.53,4.53,0,0,0,1.71.427c.726,0,1.083-.257,1.083-.784,0-.328-.271-.626-.813-.883-.883-.413-1.381-.67-1.481-.741a1.879,1.879,0,0,1-.812-1.6,1.79,1.79,0,0,1,.9-1.581,3.164,3.164,0,0,1,1.738-.47,4.72,4.72,0,0,1,2.051.427l-.484,1.326a4.588,4.588,0,0,0-1.567-.328c-.584,0-.884.214-.884.641,0,.3.285.571.842.8a10.993,10.993,0,0,1,1.567.712,2.03,2.03,0,0,1,.84,1.724,1.861,1.861,0,0,1-.926,1.668" transform="translate(-366.793 -192.789)" fill="#6d6e71"/>
      <path id="Path_31" data-name="Path 31" d="M480.336,282.447c-1.468,0-2.194-.655-2.194-1.981v-3.932l-.813-.043v-1.353l.813-.043v-1.98h1.709v1.951h2v1.483h-2v3.789c0,.413.214.613.656.613a4.431,4.431,0,0,0,1.268-.285l.471,1.383a6.108,6.108,0,0,1-1.909.4" transform="translate(-368.441 -192.283)" fill="#6d6e71"/>
      <path id="Path_32" data-name="Path 32" d="M485.642,273.205a.981.981,0,0,1-1.026-1,1,1,0,0,1,1.026-1.011,1.034,1.034,0,0,1,1.054,1.011,1,1,0,0,1-1.054,1m-.827,1.439h1.71v7.124h-1.71Z" transform="translate(-370.044 -191.861)" fill="#6d6e71"/>
      <path id="Path_33" data-name="Path 33" d="M492.62,282.853a3.942,3.942,0,0,1-2.778-1.026,3.531,3.531,0,0,1-1.1-2.693,3.541,3.541,0,0,1,3.719-3.718,5.956,5.956,0,0,1,2.351.5L494.3,277.3a4.759,4.759,0,0,0-1.738-.4,1.793,1.793,0,0,0-1.454.641,2.318,2.318,0,0,0-.541,1.553,2.4,2.4,0,0,0,.583,1.624,2.012,2.012,0,0,0,1.567.656,4.672,4.672,0,0,0,1.6-.357l.5,1.339a5.39,5.39,0,0,1-2.194.5" transform="translate(-370.952 -192.789)" fill="#6d6e71"/>
      <path id="Path_34" data-name="Path 34" d="M501.771,282.383a3.648,3.648,0,0,1-1.909.47,6.636,6.636,0,0,1-2.351-.47l.5-1.339a4.53,4.53,0,0,0,1.71.427c.726,0,1.083-.257,1.083-.784,0-.328-.271-.626-.813-.883-.883-.413-1.381-.67-1.481-.741a1.88,1.88,0,0,1-.812-1.6,1.79,1.79,0,0,1,.9-1.581,3.164,3.164,0,0,1,1.738-.47,4.72,4.72,0,0,1,2.051.427l-.484,1.326a4.588,4.588,0,0,0-1.567-.328c-.584,0-.884.214-.884.641,0,.3.286.571.842.8a10.983,10.983,0,0,1,1.567.712,2.03,2.03,0,0,1,.84,1.724,1.861,1.861,0,0,1-.926,1.668" transform="translate(-372.881 -192.789)" fill="#6d6e71"/>
    </g>
  </g>
</svg>
